<svg width="70" height="70" viewBox="0 0 70 70" fill="none" xmlns="http://www.w3.org/2000/svg"><path d="M53.825 69.436H15.611C6.985 69.436 0 62.444 0 53.826V15.61C0 6.985 6.992 0 15.611 0h38.214c8.627 0 15.611 6.992 15.611 15.611v38.214c0 8.627-6.984 15.611-15.61 15.611Z" fill="url(#a)"/><path d="M35.11 11.267c-13.428 0-22.829 9.92-22.829 22.061 0 12.483 9.579 22.232 21.976 22.232 3.71 0 7.419-.79 10.353-2.958V42.047c-2.26 2.618-5.598 4.275-9.586 4.275-7.178 0-12.909-5.39-12.909-12.994 0-7.271 5.305-12.823 12.909-12.823 7.604 0 12.506 5.715 12.73 12.358h.008v21.93h9.408V33.328c-.007-12.142-8.386-22.061-22.06-22.061Z" fill="#fff"/><defs><radialGradient id="a" cx="0" cy="0" r="1" gradientUnits="userSpaceOnUse" gradientTransform="translate(34.722 34.72) scale(41.4521)"><stop stop-color="#23C7FA"/><stop offset=".343" stop-color="#23C4F9"/><stop offset=".601" stop-color="#22BAF7"/><stop offset=".831" stop-color="#20AAF2"/><stop offset="1" stop-color="#1F99EE"/></radialGradient></defs></svg>